<svg width="28" height="28" viewBox="0 0 28 28" fill="none" xmlns="http://www.w3.org/2000/svg">
<path fill-rule="evenodd" clip-rule="evenodd" d="M14 2C7.373 2 2 7.373 2 14C2 20.63 7.373 26 14 26C20.627 26 26 20.63 26 14C26 7.373 20.627 2 14 2ZM0 14C0 6.268 6.268 0 14 0C21.732 0 28 6.268 28 14C28 21.73 21.732 28 14 28C6.268 28 0 21.73 0 14ZM8.23102 8.29303C8.62102 7.90203 9.25402 7.90203 9.64502 8.29303L14 12.648L18.355 8.29303C18.746 7.90203 19.379 7.90203 19.769 8.29303C20.16 8.68303 20.16 9.31697 19.769 9.70697L15.414 14.062L19.769 18.42C20.16 18.81 20.16 19.44 19.769 19.83C19.379 20.22 18.746 20.22 18.355 19.83L14 15.476L9.64502 19.83C9.25402 20.22 8.62102 20.22 8.23102 19.83C7.84002 19.44 7.84002 18.81 8.23102 18.42L12.586 14.062L8.23102 9.70697C7.84002 9.31697 7.84002 8.68303 8.23102 8.29303Z" fill="#FF414D"/>
</svg>
