<svg width="28" height="28" viewBox="0 0 28 28" fill="none" xmlns="http://www.w3.org/2000/svg">
<path d="M20.7269 10.6869C21.1059 10.2849 21.0879 9.65191 20.6869 9.27291C20.2849 8.89391 19.6519 8.91189 19.2729 9.31289L12.4439 16.5399L8.72689 12.6069C8.34789 12.2059 7.71489 12.1879 7.31289 12.5669C6.91189 12.9459 6.89391 13.5789 7.27291 13.9809L11.7169 18.6899C11.9059 18.8899 12.1689 18.9999 12.4439 18.9999C12.7199 18.9999 12.9829 18.8899 13.1709 18.6899L20.7269 10.6869Z" fill="#7FFAD7" fill-opacity="0.44"/>
<path fill-rule="evenodd" clip-rule="evenodd" d="M14 0C6.268 0 0 6.268 0 14C0 21.73 6.268 28 14 28C21.732 28 28 21.73 28 14C28 6.268 21.732 0 14 0ZM2 14C2 7.373 7.373 2 14 2C20.627 2 26 7.373 26 14C26 20.63 20.627 26 14 26C7.373 26 2 20.63 2 14Z" fill="#7FFAD7" fill-opacity="0.44"/>
</svg>
