<svg width="28" height="28" viewBox="0 0 28 28" fill="none" xmlns="http://www.w3.org/2000/svg">
<path fill-rule="evenodd" clip-rule="evenodd" d="M14 2C7.373 2 2 7.373 2 14C2 20.627 7.373 26 14 26C20.627 26 26 20.627 26 14C26 7.373 20.627 2 14 2ZM0 14C0 6.268 6.268 0 14 0C21.732 0 28 6.268 28 14C28 21.732 21.732 28 14 28C6.268 28 0 21.732 0 14Z" fill="#D6DFFF"/>
<path fill-rule="evenodd" clip-rule="evenodd" d="M14 12C14.552 12 15 12.448 15 13V21C15 21.552 14.552 22 14 22C13.448 22 13 21.552 13 21V13C13 12.448 13.448 12 14 12Z" fill="#D6DFFF"/>
<path fill-rule="evenodd" clip-rule="evenodd" d="M14 6C14.552 6 15 6.448 15 7V9C15 9.552 14.552 10 14 10C13.448 10 13 9.552 13 9V7C13 6.448 13.448 6 14 6Z" fill="#D6DFFF"/>
</svg>
